<?xml version="1.0" encoding="UTF-8"?><svg id="Layer_1" xmlns="http://www.w3.org/2000/svg" xmlns:xlink="http://www.w3.org/1999/xlink" viewBox="0 0 180 180"><defs><clipPath id="clippath"><rect width="180" height="180" fill="none" stroke-width="0"/></clipPath><linearGradient id="linear-gradient" x1="-493.54666" y1="186.81415" x2="-344.95334" y2="186.81415" gradientTransform="translate(324.5017 136.52879) scale(.4649 -.4649)" gradientUnits="userSpaceOnUse"><stop offset="0" stop-color="#fc92cb"/><stop offset=".51" stop-color="#dd3ce2"/><stop offset="1" stop-color="#b91cbf"/></linearGradient></defs><g clip-path="url(#clippath)"><rect width="180" height="180" rx="37" ry="37" fill="#000" stroke-width="0"/></g><path d="M36.34688,28.2627c-4.88274-.005-8.84503,3.94919-8.85003,8.83194v37.58098c0,4.88651,3.96351,8.84099,8.85003,8.84099h37.58096c4.88651,0,8.84099-3.95446,8.84099-8.84099v-37.57192c.00501-4.88274-3.94919-8.84503-8.83194-8.85003h-.00906s-37.58096.00905-37.58096.00904ZM27.49684,105.81361c0-4.88651,3.96351-8.84099,8.85003-8.84099h37.58096c4.88651,0,8.84099,3.95446,8.84099,8.84099v37.58096c0,4.88651-3.95446,8.85003-8.84099,8.85003h-37.58094c-4.88274.005-8.84503-3.94918-8.85003-8.83193v-.01811s0-37.58096-.00002-37.58094ZM96.22486,105.81361c0-4.88651,3.95446-8.84099,8.84099-8.84099h37.58096c4.88651,0,8.85003,3.95446,8.85003,8.84099v37.58096c0,4.88651-3.96351,8.85003-8.85003,8.85003h-37.57191c-4.88274,0-8.84099-3.95823-8.84099-8.84098v-37.58096s-.00906-.00906-.00905-.00904Z" fill="#fff" fill-rule="evenodd" stroke-width="0"/><path d="M121.27848,22.2653c1.92388-8.81953,14.48304-8.87356,16.50419-.07566l.08648.41071.18375.7782c2.18691,9.32703,9.73476,16.44515,19.17382,18.08219,9.20863,1.61043,9.20863,14.82891,0,16.42852-9.49792,1.64366-17.07712,8.83496-19.21705,18.2335l-.22697,1.03759c-2.01032,8.80872-14.58031,8.75467-16.50419-.07566l-.20538-.88627c-2.07032-9.42189-9.62794-16.65927-19.13059-18.31997-9.187-1.59962-9.187-14.8073,0-16.3961,9.4741-1.65209,17.02023-8.84842,19.11978-18.2335l.14051-.64849.07567-.32425s0-.01081,0-.01081Z" fill="url(#linear-gradient)" fill-rule="evenodd" stroke-width="0"/></svg>